<svg width="21" height="21" xmlns="http://www.w3.org/2000/svg" xmlns:xlink="http://www.w3.org/1999/xlink" xml:space="preserve" overflow="hidden"><defs><clipPath id="clip0"><rect x="0" y="0" width="21" height="21"/></clipPath></defs><g clip-path="url(#clip0)"><path d="M10.0625 3.0625 10.9375 3.0625 10.9375 5.6875 10.0625 5.6875Z" fill="#FF0000"/><path d="M17.0426 4.58713 15.2947 6.33499 14.676 5.71628 16.4239 3.96842Z" fill="#FF0000"/><path d="M6.31294 5.70526 5.69423 6.32397 3.94637 4.57611 4.56508 3.95739Z" fill="#FF0000"/><path d="M15.75 9.1875 17.9375 9.1875 17.9375 10.0625 15.75 10.0625Z" fill="#FF0000"/><path d="M3.0625 9.1875 5.25 9.1875 5.25 10.0625 3.0625 10.0625Z" fill="#FF0000"/><path d="M7 15.3125 7.74375 7.875 13.2344 7.875 14 15.3125 7 15.3125ZM16.625 15.3125 15.3125 15.3125 14.525 7.35C14.4812 6.9125 14.1094 6.5625 13.65 6.5625L7.35 6.5625C6.89062 6.5625 6.51875 6.9125 6.475 7.35L5.6875 15.3125 4.375 15.3125 4.375 16.625 3.0625 16.625 3.0625 17.9375 17.9375 17.9375 17.9375 16.625 16.625 16.625 16.625 15.3125Z" fill="#FF0000"/><path d="M11.55 8.75 12.0969 14.4375 12.9938 14.4375 12.425 8.75Z" fill="#FF0000"/></g></svg>